<svg width="24" height="24" xmlns="http://www.w3.org/2000/svg">

 <g>
  <title>background</title>
  <rect fill="none" id="canvas_background" height="402" width="582" y="-1" x="-1"/>
 </g>
 <g>
  <title>Layer 1</title>
  <path stroke="null" fill="#ffcc00" id="svg_3" d="m9.64786,9.331746c0,0 -2.818338,0.328657 -4.698419,0.548388c-0.169457,0.021597 -0.319293,0.140853 -0.375481,0.322084s0,0.369974 0.124863,0.48923c1.396683,1.341861 3.495274,3.351367 3.495274,3.351367c-0.001784,0 -0.576154,2.923173 -0.957878,4.87352c-0.032108,0.176536 0.02854,0.363401 0.174808,0.475145c0.145376,0.111744 0.332671,0.113622 0.479831,0.026293c1.644625,-0.984094 4.107995,-2.463992 4.107995,-2.463992s2.464262,1.479897 4.106212,2.464931c0.149836,0.08639 0.33713,0.084512 0.482507,-0.027232c0.146268,-0.111744 0.206916,-0.298609 0.173916,-0.474206c-0.381724,-1.951286 -0.955203,-4.874459 -0.955203,-4.874459s2.098592,-2.009505 3.495274,-3.34855c0.124863,-0.123012 0.18016,-0.311755 0.124863,-0.492047s-0.205132,-0.299548 -0.374589,-0.320206c-1.880081,-0.221609 -4.699311,-0.550266 -4.699311,-0.550266s-1.168362,-2.721284 -1.946972,-4.535473c-0.073134,-0.162451 -0.226537,-0.276072 -0.406697,-0.276072s-0.334455,0.114561 -0.404021,0.276072c-0.779502,1.814189 -1.946972,4.535473 -1.946972,4.535473z"/>
 </g>
</svg>