<?xml version="1.0" encoding="UTF-8"?>
<svg xmlns="http://www.w3.org/2000/svg" xmlns:xlink="http://www.w3.org/1999/xlink" width="15pt" height="15pt" viewBox="0 0 15 15" version="1.1">
<g id="surface27094214">
<path style=" stroke:none;fill-rule:nonzero;fill:rgb(100%,2.745098%,2.745098%);fill-opacity:1;" d="M 7.492188 1.242188 C 7.214844 1.246094 6.996094 1.472656 7 1.75 L 7 2 L 4.25 2 C 4.117188 2 3.988281 2.050781 3.890625 2.144531 C 3.796875 2.238281 3.742188 2.367188 3.742188 2.5 L 3 2.5 C 2.820312 2.496094 2.652344 2.59375 2.5625 2.746094 C 2.46875 2.902344 2.46875 3.097656 2.5625 3.253906 C 2.652344 3.40625 2.820312 3.503906 3 3.5 L 12 3.5 C 12.179688 3.503906 12.347656 3.40625 12.4375 3.253906 C 12.53125 3.097656 12.53125 2.902344 12.4375 2.746094 C 12.347656 2.59375 12.179688 2.496094 12 2.5 L 11.257812 2.5 C 11.257812 2.367188 11.203125 2.238281 11.109375 2.144531 C 11.011719 2.050781 10.882812 2 10.75 2 L 8 2 L 8 1.75 C 8 1.613281 7.949219 1.484375 7.851562 1.390625 C 7.757812 1.292969 7.628906 1.242188 7.492188 1.242188 Z M 3 4.5 L 3.898438 12.117188 C 3.957031 12.621094 4.382812 13 4.886719 13 L 10.113281 13 C 10.617188 13 11.042969 12.621094 11.101562 12.117188 L 12 4.5 Z M 3 4.5 "/>
</g>
</svg>
