<?xml version="1.0" encoding="UTF-8"?>
<svg xmlns="http://www.w3.org/2000/svg" xmlns:xlink="http://www.w3.org/1999/xlink" width="10pt" height="10pt" viewBox="0 0 10 10" version="1.1">
<g id="surface27083109">
<path style=" stroke:none;fill-rule:nonzero;fill:rgb(90.588235%,29.803922%,23.529412%);fill-opacity:1;" d="M 2.332031 1.332031 C 2.246094 1.332031 2.164062 1.367188 2.097656 1.429688 L 1.429688 2.097656 C 1.300781 2.226562 1.300781 2.4375 1.429688 2.570312 L 3.863281 5 L 1.429688 7.429688 C 1.300781 7.5625 1.300781 7.773438 1.429688 7.902344 L 2.097656 8.570312 C 2.226562 8.699219 2.4375 8.699219 2.570312 8.570312 L 5 6.136719 L 7.429688 8.570312 C 7.5625 8.699219 7.773438 8.699219 7.902344 8.570312 L 8.570312 7.902344 C 8.699219 7.773438 8.699219 7.5625 8.570312 7.429688 L 6.136719 5 L 8.570312 2.570312 C 8.699219 2.4375 8.699219 2.226562 8.570312 2.097656 L 7.902344 1.429688 C 7.773438 1.300781 7.5625 1.300781 7.429688 1.429688 L 5 3.863281 L 2.570312 1.429688 C 2.503906 1.367188 2.417969 1.332031 2.332031 1.332031 Z M 2.332031 1.332031 "/>
</g>
</svg>
